<svg width="128" height="128" viewBox="0 0 128 128" fill="none" xmlns="http://www.w3.org/2000/svg">
<path d="M64 88H19C19 63.1472 39.1472 43 64 43V88Z" fill="#B3AF3D"/>
<path d="M63.6582 30.3085C64.0518 29.6965 64.9471 29.6966 65.3408 30.3085L68.0088 34.4599C68.4365 35.1254 67.9591 35.9999 67.168 35.9999H66V86.9999H117C117.552 86.9999 118 87.4477 118 87.9999C118 88.5522 117.552 88.9999 117 88.9999H66V92.8896L67.9756 95.3788C68.4954 96.0341 68.0289 96.9998 67.1924 96.9999H66V98.8896L67.9756 101.379C68.4954 102.034 68.0289 103 67.1924 103H66V105.338C67.1821 105.9 67.9998 107.104 68 108.5C67.9998 110.433 66.4327 112 64.5 112C62.5673 112 61.0002 110.433 61 108.5C61.0002 107.104 61.8177 105.899 63 105.337V103H61.8076C60.9712 103 60.5047 102.034 61.0244 101.379L63 98.8896V96.9999H61.8076C60.9712 96.9997 60.5047 96.0341 61.0244 95.3788L63 92.8896V88.9999H10C9.44772 88.9999 9 88.5522 9 87.9999C9.00007 87.4477 9.44776 86.9999 10 86.9999H63V35.9999H61.8311C61.0405 35.9995 60.5632 35.1252 60.9902 34.4599L63.6582 30.3085Z" fill="#DEE683"/>
<path d="M108.733 83.0986C108.804 83.7463 108.86 84.398 108.902 85.0537L107.907 85.1181C107.866 84.477 107.811 83.8392 107.742 83.206L108.733 83.0986Z" fill="#DEE683"/>
<path d="M108.142 79.2177C108.268 79.8582 108.383 80.5033 108.482 81.1533L107.494 81.3037C107.397 80.6685 107.286 80.0379 107.162 79.4121L108.142 79.2177Z" fill="#DEE683"/>
<path d="M107.211 75.4023C107.393 76.0291 107.561 76.6619 107.717 77.2997L106.749 77.5371C106.597 76.9135 106.431 76.2944 106.253 75.6816L106.733 75.5419L107.211 75.4023Z" fill="#DEE683"/>
<path d="M105.95 71.6845C106.187 72.2935 106.412 72.9087 106.623 73.5302L105.676 73.8515C105.47 73.2443 105.251 72.6427 105.02 72.0478L105.95 71.6845Z" fill="#DEE683"/>
<path d="M104.366 68.0937C104.656 68.6793 104.932 69.2723 105.196 69.872L104.741 70.0732L104.284 70.2744C104.026 69.6881 103.755 69.1086 103.472 68.5361L104.366 68.0937Z" fill="#DEE683"/>
<path d="M102.478 64.6523C102.817 65.2107 103.142 65.7785 103.458 66.3525L103.022 66.5927L102.584 66.8339C102.275 66.2725 101.955 65.718 101.623 65.1718L102.051 64.9121L102.478 64.6523Z" fill="#DEE683"/>
<path d="M100.291 61.3906C100.678 61.9179 101.055 62.4535 101.42 62.998L100.59 63.5537C100.233 63.0214 99.865 62.4969 99.4863 61.9814L100.291 61.3906Z" fill="#DEE683"/>
<path d="M97.832 58.33C98.2639 58.8221 98.6844 59.3242 99.0947 59.8349L98.3164 60.4589C97.9155 59.96 97.5039 59.4699 97.082 58.9892L97.832 58.33Z" fill="#DEE683"/>
<path d="M95.1172 55.4941C95.5901 55.9469 96.0531 56.4099 96.5059 56.8828L95.7842 57.5732C95.3416 57.111 94.889 56.6584 94.4268 56.2158L95.1172 55.4941Z" fill="#DEE683"/>
<path d="M92.165 52.9052C92.6757 53.3156 93.1779 53.7361 93.6699 54.1679L93.0107 54.9179C92.53 54.496 92.0399 54.0845 91.541 53.6835L92.165 52.9052Z" fill="#DEE683"/>
<path d="M89.002 50.58C89.5465 50.9446 90.082 51.3216 90.6094 51.7089L90.0186 52.5136C89.503 52.135 88.9786 51.7665 88.4463 51.4101L89.002 50.58Z" fill="#DEE683"/>
<path d="M85.6475 48.5419C86.2215 48.8575 86.7892 49.1828 87.3477 49.5224L86.8281 50.3769C86.2819 50.0448 85.7274 49.7246 85.166 49.416L85.6475 48.5419Z" fill="#DEE683"/>
<path d="M82.1279 46.8037C82.7276 47.0679 83.3206 47.3444 83.9062 47.6337L83.4639 48.5283C82.8913 48.2454 82.3119 47.9741 81.7256 47.7158L82.1279 46.8037Z" fill="#DEE683"/>
<path d="M78.4697 45.3769C79.0913 45.5878 79.7064 45.8127 80.3154 46.0497L79.9521 46.9804C79.3572 46.7489 78.7556 46.5302 78.1484 46.3242L78.4697 45.3769Z" fill="#DEE683"/>
<path d="M74.7002 44.2831C75.338 44.4387 75.9708 44.6066 76.5977 44.789L76.3184 45.747C75.7056 45.5687 75.0864 45.403 74.4629 45.2509L74.7002 44.2831Z" fill="#DEE683"/>
<path d="M70.8535 43.5185C71.5012 43.6175 72.144 43.7321 72.7822 43.8583L72.7217 44.165L72.5879 44.8378C71.962 44.714 71.3315 44.6028 70.6963 44.5058L70.8467 43.5175L70.8535 43.5185Z" fill="#DEE683"/>
<path d="M66.9463 43.0976C67.6019 43.14 68.2537 43.1964 68.9014 43.2665L68.7939 44.2578C68.1607 44.1892 67.5229 44.1341 66.8818 44.0927L66.9463 43.0976Z" fill="#DEE683"/>
<path d="M75.4794 70.7216V69.5107L78.5156 64.7273H79.5597V66.4034H78.9418L77.0277 69.4325V69.4893H81.3423V70.7216H75.4794ZM78.9702 72V70.3523L78.9986 69.8161V64.7273H80.4403V72H78.9702ZM85.0231 72.0994C84.5212 72.0994 84.0737 72.0071 83.6808 71.8224C83.2901 71.6378 82.98 71.3833 82.7504 71.0589C82.5207 70.7346 82.4012 70.3629 82.3917 69.9439H83.8832C83.8997 70.2256 84.0181 70.4541 84.2383 70.6293C84.4585 70.8045 84.7201 70.892 85.0231 70.892C85.2646 70.892 85.4776 70.8388 85.6623 70.7322C85.8493 70.6233 85.9949 70.473 86.0991 70.2812C86.2056 70.0871 86.2589 69.8646 86.2589 69.6136C86.2589 69.358 86.2044 69.133 86.0955 68.9389C85.989 68.7448 85.841 68.5933 85.6516 68.4844C85.4622 68.3755 85.2456 68.3198 85.0018 68.3175C84.7887 68.3175 84.5816 68.3613 84.3803 68.4489C84.1815 68.5365 84.0264 68.656 83.9151 68.8075L82.5479 68.5625L82.8924 64.7273H87.3384V65.9844H84.1602L83.9719 67.8061H84.0146C84.1424 67.6262 84.3353 67.477 84.5934 67.3587C84.8514 67.2403 85.1403 67.1811 85.4599 67.1811C85.8978 67.1811 86.2885 67.2841 86.6317 67.4901C86.975 67.696 87.2461 67.9789 87.445 68.3388C87.6438 68.6963 87.7421 69.1082 87.7397 69.5746C87.7421 70.0646 87.6284 70.5002 87.3988 70.8814C87.1715 71.2602 86.8531 71.5585 86.4435 71.7763C86.0363 71.9917 85.5629 72.0994 85.0231 72.0994ZM90.5202 68.1683C90.1983 68.1683 89.9047 68.0902 89.6396 67.9339C89.3768 67.7753 89.1673 67.5646 89.011 67.3018C88.8548 67.0367 88.7766 66.7431 88.7766 66.4212C88.7766 66.1016 88.8548 65.8104 89.011 65.5476C89.1673 65.2824 89.3768 65.0717 89.6396 64.9155C89.9047 64.7569 90.1983 64.6776 90.5202 64.6776C90.8422 64.6776 91.1346 64.7569 91.3974 64.9155C91.6625 65.0717 91.8732 65.2824 92.0295 65.5476C92.1857 65.8104 92.2638 66.1016 92.2638 66.4212C92.2638 66.7431 92.1857 67.0367 92.0295 67.3018C91.8732 67.5646 91.6625 67.7753 91.3974 67.9339C91.1346 68.0902 90.8422 68.1683 90.5202 68.1683ZM90.5202 67.1598C90.6576 67.1598 90.7818 67.1267 90.8931 67.0604C91.0044 66.9941 91.092 66.9053 91.1559 66.794C91.2222 66.6828 91.2553 66.5585 91.2553 66.4212C91.2553 66.2862 91.2222 66.1631 91.1559 66.0518C91.092 65.9406 91.0044 65.8518 90.8931 65.7855C90.7818 65.7192 90.6576 65.6861 90.5202 65.6861C90.3853 65.6861 90.2622 65.7192 90.1509 65.7855C90.0397 65.8518 89.9509 65.9406 89.8846 66.0518C89.8183 66.1631 89.7852 66.2862 89.7852 66.4212C89.7852 66.5585 89.8183 66.6828 89.8846 66.794C89.9509 66.9053 90.0397 66.9941 90.1509 67.0604C90.2622 67.1267 90.3853 67.1598 90.5202 67.1598Z" fill="#B3AF3D"/>
</svg>
