<svg width="128" height="128" viewBox="0 0 128 128" fill="none" xmlns="http://www.w3.org/2000/svg">
<path d="M64 88H19C19 63.1472 39.1472 43 64 43V88Z" fill="#86008D"/>
<mask id="path-2-inside-1_4_70" fill="white">
<path d="M64 88H109C109 63.1472 88.8528 43 64 43V88Z"/>
</mask>
<path d="M64 88V88.5H63.5V88H64ZM109 88H109.5V88.5H109V88ZM64 43H63.5V42.5H64V43ZM64 88V87.5H65.0227V88V88.5H64V88ZM67.0682 88V87.5H69.1136V88V88.5H67.0682V88ZM71.1591 88V87.5H73.2045V88V88.5H71.1591V88ZM75.25 88V87.5H77.2955V88V88.5H75.25V88ZM79.3409 88V87.5H81.3864V88V88.5H79.3409V88ZM83.4318 88V87.5H85.4773V88V88.5H83.4318V88ZM87.5227 88V87.5H89.5682V88V88.5H87.5227V88ZM91.6136 88V87.5H93.6591V88V88.5H91.6136V88ZM95.7045 88V87.5H97.75V88V88.5H95.7045V88ZM99.7955 88V87.5H101.841V88V88.5H99.7955V88ZM103.886 88V87.5H105.932V88V88.5H103.886V88ZM107.977 88V87.5H109V88V88.5H107.977V88ZM109 88H108.5C108.5 87.6744 108.497 87.3496 108.49 87.0257L108.989 87.015L109.489 87.0043C109.496 87.3353 109.5 87.6672 109.5 88H109ZM108.905 85.054L108.406 85.0863C108.364 84.4378 108.308 83.7932 108.239 83.1527L108.736 83.0988L109.233 83.045C109.304 83.6999 109.361 84.3589 109.404 85.0218L108.905 85.054ZM108.482 81.1528L107.988 81.2283C107.89 80.5858 107.778 79.9479 107.653 79.3147L108.143 79.2177L108.634 79.1207C108.762 79.7681 108.876 80.4204 108.977 81.0774L108.482 81.1528ZM107.72 77.2998L107.234 77.4183C107.081 76.7876 106.913 76.1622 106.733 75.5424L107.213 75.4027L107.693 75.263C107.878 75.8968 108.049 76.5364 108.206 77.1813L107.72 77.2998ZM106.623 73.5299L106.15 73.6906C105.941 73.0764 105.72 72.4682 105.485 71.8664L105.951 71.685L106.417 71.5037C106.657 72.1192 106.883 72.7411 107.096 73.3692L106.623 73.5299ZM105.199 69.8715L104.742 70.0731C104.48 69.4799 104.206 68.8935 103.92 68.3142L104.368 68.0927L104.817 67.8712C105.109 68.4636 105.389 69.0632 105.657 69.6699L105.199 69.8715ZM103.46 66.352L103.022 66.5928C102.71 66.025 102.386 65.4647 102.05 64.9123L102.477 64.6525L102.904 64.3928C103.248 64.9576 103.579 65.5305 103.898 66.1111L103.46 66.352ZM101.42 62.9973L101.005 63.2755C100.645 62.7371 100.273 62.2071 99.8898 61.6857L100.293 61.3897L100.696 61.0937C101.087 61.6268 101.467 62.1687 101.836 62.7191L101.42 62.9973ZM99.0963 59.8327L98.7065 60.1459C98.3009 59.6412 97.8845 59.1454 97.4576 58.659L97.8334 58.3292L98.2092 57.9994C98.6456 58.4966 99.0713 59.0035 99.486 59.5195L99.0963 59.8327ZM96.5065 56.8819L96.1453 57.2277C95.6976 56.7602 95.2398 56.3024 94.7723 55.8547L95.1181 55.4935L95.4639 55.1324C95.9419 55.5901 96.4099 56.0581 96.8676 56.5361L96.5065 56.8819ZM93.6708 54.1666L93.341 54.5424C92.8546 54.1155 92.3588 53.6991 91.8541 53.2935L92.1673 52.9037L92.4805 52.514C92.9965 52.9287 93.5034 53.3544 94.0006 53.7908L93.6708 54.1666ZM90.6103 51.7072L90.3143 52.1102C89.7929 51.7273 89.2629 51.3554 88.7245 50.995L89.0027 50.5796L89.2809 50.1641C89.8313 50.5326 90.3732 50.9127 90.9063 51.3043L90.6103 51.7072ZM87.3475 49.5229L87.0877 49.9501C86.5353 49.6142 85.975 49.29 85.4072 48.9778L85.648 48.5397L85.8889 48.1015C86.4695 48.4207 87.0424 48.7522 87.6072 49.0957L87.3475 49.5229ZM83.9073 47.6317L83.6858 48.0799C83.1065 47.7937 82.5201 47.5197 81.9269 47.2583L82.1285 46.8008L82.3301 46.3432C82.9367 46.6105 83.5364 46.8907 84.1288 47.1834L83.9073 47.6317ZM80.315 46.0487L80.1336 46.5147C79.5318 46.2804 78.9236 46.0589 78.3094 45.8505L78.4701 45.377L78.6308 44.9035C79.2589 45.1167 79.8808 45.3432 80.4963 45.5828L80.315 46.0487ZM76.5973 44.787L76.4576 45.2671C75.8378 45.0867 75.2124 44.9195 74.5817 44.7657L74.7002 44.2799L74.8187 43.7941C75.4636 43.9514 76.1032 44.1225 76.737 44.3069L76.5973 44.787ZM72.7823 43.8565L72.6852 44.347C72.0521 44.2218 71.4142 44.11 70.7717 44.0119L70.8471 43.5176L70.9226 43.0233C71.5796 43.1236 72.2319 43.238 72.8793 43.366L72.7823 43.8565ZM68.9012 43.2638L68.8473 43.7609C68.2068 43.6915 67.5622 43.6358 66.9137 43.5938L66.946 43.0949L66.9782 42.5959C67.6411 42.6388 68.3001 42.6958 68.955 42.7667L68.9012 43.2638ZM64.985 43.0106L64.9743 43.5105C64.6504 43.5035 64.3256 43.5 64 43.5V43V42.5C64.3327 42.5 64.6647 42.5036 64.9957 42.5107L64.985 43.0106ZM64 43H64.5V44.0227H64H63.5V43H64ZM64 46.0682H64.5V48.1136H64H63.5V46.0682H64ZM64 50.1591H64.5V52.2045H64H63.5V50.1591H64ZM64 54.25H64.5V56.2955H64H63.5V54.25H64ZM64 58.3409H64.5V60.3864H64H63.5V58.3409H64ZM64 62.4318H64.5V64.4773H64H63.5V62.4318H64ZM64 66.5227H64.5V68.5682H64H63.5V66.5227H64ZM64 70.6136H64.5V72.6591H64H63.5V70.6136H64ZM64 74.7045H64.5V76.75H64H63.5V74.7045H64ZM64 78.7955H64.5V80.8409H64H63.5V78.7955H64ZM64 82.8864H64.5V84.9318H64H63.5V82.8864H64ZM64 86.9773H64.5V88H64H63.5V86.9773H64ZM64 88V89H63V88H64ZM109 88H110V89H109V88ZM64 43H63V42H64V43ZM64 88V87H65.0227V88V89H64V88ZM67.0682 88V87H69.1136V88V89H67.0682V88ZM71.1591 88V87H73.2045V88V89H71.1591V88ZM75.25 88V87H77.2955V88V89H75.25V88ZM79.3409 88V87H81.3864V88V89H79.3409V88ZM83.4318 88V87H85.4773V88V89H83.4318V88ZM87.5227 88V87H89.5682V88V89H87.5227V88ZM91.6136 88V87H93.6591V88V89H91.6136V88ZM95.7045 88V87H97.75V88V89H95.7045V88ZM99.7955 88V87H101.841V88V89H99.7955V88ZM103.886 88V87H105.932V88V89H103.886V88ZM107.977 88V87H109V88V89H107.977V88ZM109 88H108C108 87.678 107.997 87.3568 107.99 87.0365L108.989 87.015L109.989 86.9935C109.996 87.3282 110 87.6637 110 88H109ZM108.905 85.054L107.907 85.1185C107.866 84.4773 107.811 83.8399 107.742 83.2065L108.736 83.0988L109.73 82.9911C109.802 83.6532 109.86 84.3195 109.903 84.9896L108.905 85.054ZM108.482 81.1528L107.494 81.3038C107.397 80.6685 107.286 80.0377 107.162 79.4118L108.143 79.2177L109.124 79.0236C109.254 79.6782 109.37 80.3377 109.471 81.0019L108.482 81.1528ZM107.72 77.2998L106.749 77.5368C106.597 76.9132 106.431 76.2949 106.253 75.6821L107.213 75.4027L108.173 75.1233C108.36 75.7641 108.533 76.4108 108.692 77.0629L107.72 77.2998ZM106.623 73.5299L105.676 73.8513C105.47 73.244 105.251 72.6427 105.019 72.0477L105.951 71.685L106.883 71.3224C107.125 71.9446 107.354 72.5735 107.57 73.2086L106.623 73.5299ZM105.199 69.8715L104.284 70.2747C104.026 69.6882 103.755 69.1084 103.472 68.5356L104.368 68.0927L105.265 67.6497C105.561 68.2486 105.844 68.8549 106.114 69.4682L105.199 69.8715ZM103.46 66.352L102.584 66.8337C102.275 66.2723 101.955 65.7183 101.623 65.1721L102.477 64.6525L103.332 64.133C103.679 64.704 104.014 65.2832 104.337 65.8702L103.46 66.352ZM101.42 62.9973L100.589 63.5536C100.233 63.0213 99.8654 62.4972 99.4868 61.9817L100.293 61.3897L101.099 60.7978C101.495 61.3367 101.879 61.8845 102.251 62.441L101.42 62.9973ZM99.0963 59.8327L98.3168 60.4591C97.9157 59.96 97.5039 59.4698 97.0818 58.9889L97.8334 58.3292L98.585 57.6696C99.0261 58.1722 99.4565 58.6846 99.8758 59.2063L99.0963 59.8327ZM96.5065 56.8819L95.7842 57.5735C95.3415 57.1112 94.8888 56.6585 94.4265 56.2158L95.1181 55.4935L95.8097 54.7712C96.2929 55.2339 96.766 55.7071 97.2287 56.1903L96.5065 56.8819ZM93.6708 54.1666L93.0111 54.9182C92.5302 54.4961 92.04 54.0843 91.5409 53.6832L92.1673 52.9037L92.7937 52.1242C93.3154 52.5435 93.8278 52.9739 94.3304 53.415L93.6708 54.1666ZM90.6103 51.7072L90.0183 52.5132C89.5028 52.1346 88.9787 51.7669 88.4464 51.4105L89.0027 50.5796L89.559 49.7486C90.1155 50.1211 90.6633 50.5055 91.2022 50.9013L90.6103 51.7072ZM87.3475 49.5229L86.8279 50.3773C86.2817 50.0452 85.7277 49.7246 85.1663 49.416L85.648 48.5397L86.1298 47.6634C86.7168 47.9861 87.296 48.3212 87.867 48.6685L87.3475 49.5229ZM83.9073 47.6317L83.4643 48.5282C82.8916 48.2452 82.3118 47.9743 81.7253 47.7159L82.1285 46.8008L82.5318 45.8857C83.1451 46.156 83.7514 46.4392 84.3503 46.7351L83.9073 47.6317ZM80.315 46.0487L79.9523 46.9806C79.3572 46.7491 78.7559 46.5301 78.1487 46.324L78.4701 45.377L78.7914 44.4301C79.4265 44.6456 80.0554 44.8746 80.6776 45.1168L80.315 46.0487ZM76.5973 44.787L76.3179 45.7472C75.7051 45.5689 75.0868 45.4035 74.4632 45.2514L74.7002 44.2799L74.9371 43.3084C75.5892 43.4674 76.2359 43.6404 76.8767 43.8269L76.5973 44.787ZM72.7823 43.8565L72.5882 44.8375C71.9623 44.7137 71.3315 44.6031 70.6962 44.5061L70.8471 43.5176L70.9981 42.5291C71.6622 42.6304 72.3218 42.7461 72.9764 42.8755L72.7823 43.8565ZM68.9012 43.2638L68.7935 44.258C68.1601 44.1894 67.5227 44.1342 66.8815 44.0928L66.946 43.0949L67.0104 42.097C67.6805 42.1403 68.3468 42.1979 69.0089 42.2696L68.9012 43.2638ZM64.985 43.0106L64.9635 44.0103C64.6432 44.0035 64.322 44 64 44V43V42C64.3363 42 64.6718 42.0036 65.0065 42.0108L64.985 43.0106ZM64 43H65V44.0227H64H63V43H64ZM64 46.0682H65V48.1136H64H63V46.0682H64ZM64 50.1591H65V52.2045H64H63V50.1591H64ZM64 54.25H65V56.2955H64H63V54.25H64ZM64 58.3409H65V60.3864H64H63V58.3409H64ZM64 62.4318H65V64.4773H64H63V62.4318H64ZM64 66.5227H65V68.5682H64H63V66.5227H64ZM64 70.6136H65V72.6591H64H63V70.6136H64ZM64 74.7045H65V76.75H64H63V74.7045H64ZM64 78.7955H65V80.8409H64H63V78.7955H64ZM64 82.8864H65V84.9318H64H63V82.8864H64ZM64 86.9773H65V88H64H63V86.9773H64Z" fill="#F648FF" mask="url(#path-2-inside-1_4_70)"/>
<path d="M63.6582 30.3086C64.0518 29.6965 64.9471 29.6966 65.3408 30.3086L68.0088 34.46C68.4365 35.1255 67.9591 36 67.168 36H66V87H117C117.552 87 118 87.4477 118 88C118 88.5523 117.552 89 117 89H66V92.8896L67.9756 95.3789C68.4954 96.0342 68.0289 96.9998 67.1924 97H66V98.8896L67.9756 101.379C68.4954 102.034 68.0289 103 67.1924 103H66V105.338C67.1821 105.9 67.9998 107.104 68 108.5C67.9998 110.433 66.4327 112 64.5 112C62.5673 112 61.0002 110.433 61 108.5C61.0002 107.104 61.8177 105.899 63 105.337V103H61.8076C60.9712 103 60.5047 102.034 61.0244 101.379L63 98.8896V97H61.8076C60.9712 96.9998 60.5047 96.0342 61.0244 95.3789L63 92.8896V89H10C9.44772 89 9 88.5523 9 88C9.00003 87.4477 9.44774 87 10 87H63V36H61.8311C61.0405 35.9996 60.5632 35.1252 60.9902 34.46L63.6582 30.3086Z" fill="#F648FF"/>
<path d="M75.4794 70.7216V69.5107L78.5156 64.7273H79.5597V66.4034H78.9418L77.0277 69.4325V69.4893H81.3423V70.7216H75.4794ZM78.9702 72V70.3523L78.9986 69.8161V64.7273H80.4403V72H78.9702ZM85.0231 72.0994C84.5212 72.0994 84.0737 72.0071 83.6808 71.8224C83.2901 71.6378 82.98 71.3833 82.7504 71.0589C82.5207 70.7346 82.4012 70.3629 82.3917 69.9439H83.8832C83.8997 70.2256 84.0181 70.4541 84.2383 70.6293C84.4585 70.8045 84.7201 70.892 85.0231 70.892C85.2646 70.892 85.4776 70.8388 85.6623 70.7322C85.8493 70.6233 85.9949 70.473 86.0991 70.2812C86.2056 70.0871 86.2589 69.8646 86.2589 69.6136C86.2589 69.358 86.2044 69.133 86.0955 68.9389C85.989 68.7448 85.841 68.5933 85.6516 68.4844C85.4622 68.3755 85.2456 68.3198 85.0018 68.3175C84.7887 68.3175 84.5816 68.3613 84.3803 68.4489C84.1815 68.5365 84.0264 68.656 83.9151 68.8075L82.5479 68.5625L82.8924 64.7273H87.3384V65.9844H84.1602L83.9719 67.8061H84.0146C84.1424 67.6262 84.3353 67.477 84.5934 67.3587C84.8514 67.2403 85.1403 67.1811 85.4599 67.1811C85.8978 67.1811 86.2885 67.2841 86.6317 67.4901C86.975 67.696 87.2461 67.9789 87.445 68.3388C87.6438 68.6963 87.7421 69.1082 87.7397 69.5746C87.7421 70.0646 87.6284 70.5002 87.3988 70.8814C87.1715 71.2602 86.8531 71.5585 86.4435 71.7763C86.0363 71.9917 85.5629 72.0994 85.0231 72.0994ZM90.5202 68.1683C90.1983 68.1683 89.9047 68.0902 89.6396 67.9339C89.3768 67.7753 89.1673 67.5646 89.011 67.3018C88.8548 67.0367 88.7766 66.7431 88.7766 66.4212C88.7766 66.1016 88.8548 65.8104 89.011 65.5476C89.1673 65.2824 89.3768 65.0717 89.6396 64.9155C89.9047 64.7569 90.1983 64.6776 90.5202 64.6776C90.8422 64.6776 91.1346 64.7569 91.3974 64.9155C91.6625 65.0717 91.8732 65.2824 92.0295 65.5476C92.1857 65.8104 92.2638 66.1016 92.2638 66.4212C92.2638 66.7431 92.1857 67.0367 92.0295 67.3018C91.8732 67.5646 91.6625 67.7753 91.3974 67.9339C91.1346 68.0902 90.8422 68.1683 90.5202 68.1683ZM90.5202 67.1598C90.6576 67.1598 90.7818 67.1267 90.8931 67.0604C91.0044 66.9941 91.092 66.9053 91.1559 66.794C91.2222 66.6828 91.2553 66.5585 91.2553 66.4212C91.2553 66.2862 91.2222 66.1631 91.1559 66.0518C91.092 65.9406 91.0044 65.8518 90.8931 65.7855C90.7818 65.7192 90.6576 65.6861 90.5202 65.6861C90.3853 65.6861 90.2622 65.7192 90.1509 65.7855C90.0397 65.8518 89.9509 65.9406 89.8846 66.0518C89.8183 66.1631 89.7852 66.2862 89.7852 66.4212C89.7852 66.5585 89.8183 66.6828 89.8846 66.794C89.9509 66.9053 90.0397 66.9941 90.1509 67.0604C90.2622 67.1267 90.3853 67.1598 90.5202 67.1598Z" fill="#86008D"/>
</svg>
