<svg width="128" height="128" viewBox="0 0 128 128" fill="none" xmlns="http://www.w3.org/2000/svg">
<path d="M119.996 34.2578C119.849 39.0971 115.577 43.0786 110 43.8584V70.252C113.45 71.14 116 74.2723 116 78C116 82.4183 112.418 86 108 86C103.582 86 100 82.4183 100 78C100 74.2723 102.55 71.14 106 70.252V65.1865L72.999 74.9775C72.999 74.985 73 74.9925 73 75C73 79.4183 69.4183 83 65 83C62.1836 83 59.7087 81.5435 58.2832 79.3438L22 90.1084V93.252C25.4505 94.14 28 97.2723 28 101C28 105.418 24.4183 109 20 109C15.5817 109 12 105.418 12 101C12 97.2723 14.5495 94.14 18 93.252V66.8584C12.3247 66.0648 8 61.955 8 57L31.9961 57.2578C31.8491 62.0971 27.5766 66.0786 22 66.8584V85.9375L57.0205 75.5469C57.0083 75.3661 57 75.1839 57 75C57 70.5817 60.5817 67 65 67C68.004 67 70.6195 68.6568 71.9873 71.1055L106 61.0137V43.8584C100.325 43.0648 96 38.955 96 34L119.996 34.2578Z" fill="#86008D"/>
<rect x="2.5" y="42.5" width="36" height="13" rx="2.5" fill="#F648FF"/>
<rect x="2.5" y="42.5" width="36" height="13" rx="2.5" stroke="#86008D"/>
<path d="M10.5682 52.0795C10.1932 52.0795 9.8589 52.0152 9.56534 51.8864C9.27367 51.7576 9.04167 51.5786 8.86932 51.3494C8.69886 51.1184 8.60606 50.8504 8.59091 50.5455H9.30682C9.32197 50.733 9.38636 50.8949 9.5 51.0312C9.61364 51.1657 9.76231 51.2699 9.94602 51.3438C10.1297 51.4176 10.3333 51.4545 10.5568 51.4545C10.8068 51.4545 11.0284 51.411 11.2216 51.3239C11.4148 51.2367 11.5663 51.1155 11.6761 50.9602C11.786 50.8049 11.8409 50.625 11.8409 50.4205C11.8409 50.2064 11.7879 50.018 11.6818 49.8551C11.5758 49.6903 11.4205 49.5616 11.2159 49.4688C11.0114 49.3759 10.7614 49.3295 10.4659 49.3295H10V48.7045H10.4659C10.697 48.7045 10.8996 48.6629 11.0739 48.5795C11.25 48.4962 11.3873 48.3788 11.4858 48.2273C11.5862 48.0758 11.6364 47.8977 11.6364 47.6932C11.6364 47.4962 11.5928 47.3248 11.5057 47.179C11.4186 47.0331 11.2955 46.9195 11.1364 46.8381C10.9792 46.7566 10.7936 46.7159 10.5795 46.7159C10.3788 46.7159 10.1894 46.7528 10.0114 46.8267C9.83523 46.8987 9.69129 47.0038 9.57955 47.142C9.4678 47.2784 9.4072 47.4432 9.39773 47.6364H8.71591C8.72727 47.3314 8.81913 47.0644 8.99148 46.8352C9.16383 46.6042 9.3892 46.4242 9.66761 46.2955C9.94792 46.1667 10.2557 46.1023 10.5909 46.1023C10.9508 46.1023 11.2595 46.1752 11.517 46.321C11.7746 46.465 11.9725 46.6553 12.1108 46.892C12.2491 47.1288 12.3182 47.3845 12.3182 47.6591C12.3182 47.9867 12.232 48.2661 12.0597 48.4972C11.8892 48.7282 11.6572 48.8883 11.3636 48.9773V49.0227C11.7311 49.0833 12.018 49.2396 12.2244 49.4915C12.4309 49.7415 12.5341 50.0511 12.5341 50.4205C12.5341 50.7367 12.4479 51.0208 12.2756 51.2727C12.1051 51.5227 11.8722 51.7197 11.5767 51.8636C11.2813 52.0076 10.9451 52.0795 10.5682 52.0795ZM15.5142 52.0795C15.1809 52.0795 14.8807 52.0133 14.6136 51.8807C14.3466 51.7481 14.1326 51.5663 13.9716 51.3352C13.8106 51.1042 13.7225 50.8409 13.7074 50.5455H14.3892C14.4157 50.8087 14.535 51.0265 14.7472 51.1989C14.9612 51.3693 15.2169 51.4545 15.5142 51.4545C15.7528 51.4545 15.965 51.3987 16.1506 51.2869C16.3381 51.1752 16.4848 51.0218 16.5909 50.8267C16.6989 50.6297 16.7528 50.4072 16.7528 50.1591C16.7528 49.9053 16.697 49.679 16.5852 49.4801C16.4754 49.2794 16.3239 49.1212 16.1307 49.0057C15.9375 48.8902 15.7169 48.8314 15.4688 48.8295C15.2907 48.8277 15.108 48.8551 14.9205 48.9119C14.733 48.9669 14.5786 49.0379 14.4574 49.125L13.7983 49.0455L14.1506 46.1818H17.1733V46.8068H14.7415L14.5369 48.5227H14.571C14.6903 48.428 14.84 48.3494 15.0199 48.2869C15.1998 48.2244 15.3873 48.1932 15.5824 48.1932C15.9384 48.1932 16.2557 48.2784 16.5341 48.4489C16.8144 48.6174 17.0341 48.8485 17.1932 49.142C17.3542 49.4356 17.4347 49.7708 17.4347 50.1477C17.4347 50.5189 17.3513 50.8504 17.1847 51.142C17.0199 51.4318 16.7926 51.661 16.5028 51.8295C16.2131 51.9962 15.8835 52.0795 15.5142 52.0795ZM22.5291 50.9773V47.2273H23.1655V50.9773H22.5291ZM20.9723 49.4205V48.7841H24.7223V49.4205H20.9723ZM30.1548 52.0795C29.8215 52.0795 29.5213 52.0133 29.2543 51.8807C28.9872 51.7481 28.7732 51.5663 28.6122 51.3352C28.4512 51.1042 28.3632 50.8409 28.348 50.5455H29.0298C29.0563 50.8087 29.1757 51.0265 29.3878 51.1989C29.6018 51.3693 29.8575 51.4545 30.1548 51.4545C30.3935 51.4545 30.6056 51.3987 30.7912 51.2869C30.9787 51.1752 31.1255 51.0218 31.2315 50.8267C31.3395 50.6297 31.3935 50.4072 31.3935 50.1591C31.3935 49.9053 31.3376 49.679 31.2259 49.4801C31.116 49.2794 30.9645 49.1212 30.7713 49.0057C30.5781 48.8902 30.3575 48.8314 30.1094 48.8295C29.9313 48.8277 29.7486 48.8551 29.5611 48.9119C29.3736 48.9669 29.2192 49.0379 29.098 49.125L28.4389 49.0455L28.7912 46.1818H31.8139V46.8068H29.3821L29.1776 48.5227H29.2116C29.331 48.428 29.4806 48.3494 29.6605 48.2869C29.8404 48.2244 30.0279 48.1932 30.223 48.1932C30.5791 48.1932 30.8963 48.2784 31.1747 48.4489C31.455 48.6174 31.6747 48.8485 31.8338 49.142C31.9948 49.4356 32.0753 49.7708 32.0753 50.1477C32.0753 50.5189 31.992 50.8504 31.8253 51.142C31.6605 51.4318 31.4332 51.661 31.1435 51.8295C30.8537 51.9962 30.5241 52.0795 30.1548 52.0795Z" fill="#86008D"/>
<rect x="89.5" y="19.5" width="36" height="13" rx="2.5" fill="#F648FF"/>
<rect x="89.5" y="19.5" width="36" height="13" rx="2.5" stroke="#86008D"/>
<path d="M105.648 23.1818V29H104.943V23.9205H104.909L103.489 24.8636V24.1477L104.943 23.1818H105.648ZM109.219 29.0795C108.791 29.0795 108.426 28.9631 108.125 28.7301C107.824 28.4953 107.594 28.1553 107.435 27.7102C107.276 27.2633 107.196 26.7235 107.196 26.0909C107.196 25.4621 107.276 24.9252 107.435 24.4801C107.596 24.0331 107.827 23.6922 108.128 23.4574C108.431 23.2206 108.795 23.1023 109.219 23.1023C109.643 23.1023 110.006 23.2206 110.307 23.4574C110.61 23.6922 110.841 24.0331 111 24.4801C111.161 24.9252 111.241 25.4621 111.241 26.0909C111.241 26.7235 111.162 27.2633 111.003 27.7102C110.844 28.1553 110.614 28.4953 110.312 28.7301C110.011 28.9631 109.647 29.0795 109.219 29.0795ZM109.219 28.4545C109.643 28.4545 109.973 28.25 110.207 27.8409C110.442 27.4318 110.56 26.8485 110.56 26.0909C110.56 25.5871 110.506 25.1581 110.398 24.804C110.292 24.4498 110.138 24.1799 109.938 23.9943C109.739 23.8087 109.499 23.7159 109.219 23.7159C108.798 23.7159 108.47 23.9233 108.233 24.3381C107.996 24.7509 107.878 25.3352 107.878 26.0909C107.878 26.5947 107.931 27.0227 108.037 27.375C108.143 27.7273 108.295 27.9953 108.494 28.179C108.695 28.3627 108.937 28.4545 109.219 28.4545Z" fill="#86008D"/>
</svg>
