<svg width="128" height="128" viewBox="0 0 128 128" fill="none" xmlns="http://www.w3.org/2000/svg">
<path d="M119.996 34.2578C119.849 39.0971 115.577 43.0786 110 43.8584V70.252C113.45 71.14 116 74.2723 116 78C116 82.4183 112.418 86 108 86C103.582 86 100 82.4183 100 78C100 74.2723 102.55 71.14 106 70.252V65.1865L72.999 74.9775C72.999 74.985 73 74.9925 73 75C73 79.4183 69.4183 83 65 83C62.1836 83 59.7087 81.5435 58.2832 79.3438L22 90.1084V93.252C25.4505 94.14 28 97.2723 28 101C28 105.418 24.4183 109 20 109C15.5817 109 12 105.418 12 101C12 97.2723 14.5495 94.14 18 93.252V66.8584C12.3247 66.0648 8 61.955 8 57L31.9961 57.2578C31.8491 62.0971 27.5766 66.0786 22 66.8584V85.9375L57.0205 75.5469C57.0083 75.3661 57 75.1839 57 75C57 70.5817 60.5817 67 65 67C68.004 67 70.6195 68.6568 71.9873 71.1055L106 61.0137V43.8584C100.325 43.0648 96 38.955 96 34L119.996 34.2578Z" fill="#2B8324"/>
<rect x="2.5" y="42.5" width="35" height="13" rx="1.5" fill="#5DB851" stroke="#2B8324"/>
<path d="M9.56818 52.0795C9.19318 52.0795 8.8589 52.0152 8.56534 51.8864C8.27367 51.7576 8.04167 51.5786 7.86932 51.3494C7.69886 51.1184 7.60606 50.8504 7.59091 50.5455H8.30682C8.32197 50.733 8.38636 50.8949 8.5 51.0312C8.61364 51.1657 8.76231 51.2699 8.94602 51.3438C9.12973 51.4176 9.33333 51.4545 9.55682 51.4545C9.80682 51.4545 10.0284 51.411 10.2216 51.3239C10.4148 51.2367 10.5663 51.1155 10.6761 50.9602C10.786 50.8049 10.8409 50.625 10.8409 50.4205C10.8409 50.2064 10.7879 50.018 10.6818 49.8551C10.5758 49.6903 10.4205 49.5616 10.2159 49.4688C10.0114 49.3759 9.76136 49.3295 9.46591 49.3295H9V48.7045H9.46591C9.69697 48.7045 9.89962 48.6629 10.0739 48.5795C10.25 48.4962 10.3873 48.3788 10.4858 48.2273C10.5862 48.0758 10.6364 47.8977 10.6364 47.6932C10.6364 47.4962 10.5928 47.3248 10.5057 47.179C10.4186 47.0331 10.2955 46.9195 10.1364 46.8381C9.97917 46.7566 9.79356 46.7159 9.57955 46.7159C9.37879 46.7159 9.18939 46.7528 9.01136 46.8267C8.83523 46.8987 8.69129 47.0038 8.57955 47.142C8.4678 47.2784 8.4072 47.4432 8.39773 47.6364H7.71591C7.72727 47.3314 7.81913 47.0644 7.99148 46.8352C8.16383 46.6042 8.3892 46.4242 8.66761 46.2955C8.94792 46.1667 9.25568 46.1023 9.59091 46.1023C9.95076 46.1023 10.2595 46.1752 10.517 46.321C10.7746 46.465 10.9725 46.6553 11.1108 46.892C11.2491 47.1288 11.3182 47.3845 11.3182 47.6591C11.3182 47.9867 11.232 48.2661 11.0597 48.4972C10.8892 48.7282 10.6572 48.8883 10.3636 48.9773V49.0227C10.7311 49.0833 11.018 49.2396 11.2244 49.4915C11.4309 49.7415 11.5341 50.0511 11.5341 50.4205C11.5341 50.7367 11.4479 51.0208 11.2756 51.2727C11.1051 51.5227 10.8722 51.7197 10.5767 51.8636C10.2813 52.0076 9.94508 52.0795 9.56818 52.0795ZM14.5142 52.0795C14.1809 52.0795 13.8807 52.0133 13.6136 51.8807C13.3466 51.7481 13.1326 51.5663 12.9716 51.3352C12.8106 51.1042 12.7225 50.8409 12.7074 50.5455H13.3892C13.4157 50.8087 13.535 51.0265 13.7472 51.1989C13.9612 51.3693 14.2169 51.4545 14.5142 51.4545C14.7528 51.4545 14.965 51.3987 15.1506 51.2869C15.3381 51.1752 15.4848 51.0218 15.5909 50.8267C15.6989 50.6297 15.7528 50.4072 15.7528 50.1591C15.7528 49.9053 15.697 49.679 15.5852 49.4801C15.4754 49.2794 15.3239 49.1212 15.1307 49.0057C14.9375 48.8902 14.7169 48.8314 14.4688 48.8295C14.2907 48.8277 14.108 48.8551 13.9205 48.9119C13.733 48.9669 13.5786 49.0379 13.4574 49.125L12.7983 49.0455L13.1506 46.1818H16.1733V46.8068H13.7415L13.5369 48.5227H13.571C13.6903 48.428 13.84 48.3494 14.0199 48.2869C14.1998 48.2244 14.3873 48.1932 14.5824 48.1932C14.9384 48.1932 15.2557 48.2784 15.5341 48.4489C15.8144 48.6174 16.0341 48.8485 16.1932 49.142C16.3542 49.4356 16.4347 49.7708 16.4347 50.1477C16.4347 50.5189 16.3513 50.8504 16.1847 51.142C16.0199 51.4318 15.7926 51.661 15.5028 51.8295C15.2131 51.9962 14.8835 52.0795 14.5142 52.0795ZM21.5291 50.9773V47.2273H22.1655V50.9773H21.5291ZM19.9723 49.4205V48.7841H23.7223V49.4205H19.9723ZM29.1548 52.0795C28.8215 52.0795 28.5213 52.0133 28.2543 51.8807C27.9872 51.7481 27.7732 51.5663 27.6122 51.3352C27.4512 51.1042 27.3632 50.8409 27.348 50.5455H28.0298C28.0563 50.8087 28.1757 51.0265 28.3878 51.1989C28.6018 51.3693 28.8575 51.4545 29.1548 51.4545C29.3935 51.4545 29.6056 51.3987 29.7912 51.2869C29.9787 51.1752 30.1255 51.0218 30.2315 50.8267C30.3395 50.6297 30.3935 50.4072 30.3935 50.1591C30.3935 49.9053 30.3376 49.679 30.2259 49.4801C30.116 49.2794 29.9645 49.1212 29.7713 49.0057C29.5781 48.8902 29.3575 48.8314 29.1094 48.8295C28.9313 48.8277 28.7486 48.8551 28.5611 48.9119C28.3736 48.9669 28.2192 49.0379 28.098 49.125L27.4389 49.0455L27.7912 46.1818H30.8139V46.8068H28.3821L28.1776 48.5227H28.2116C28.331 48.428 28.4806 48.3494 28.6605 48.2869C28.8404 48.2244 29.0279 48.1932 29.223 48.1932C29.5791 48.1932 29.8963 48.2784 30.1747 48.4489C30.455 48.6174 30.6747 48.8485 30.8338 49.142C30.9948 49.4356 31.0753 49.7708 31.0753 50.1477C31.0753 50.5189 30.992 50.8504 30.8253 51.142C30.6605 51.4318 30.4332 51.661 30.1435 51.8295C29.8537 51.9962 29.5241 52.0795 29.1548 52.0795Z" fill="#2B8324"/>
<rect x="89.5" y="19.5" width="35" height="13" rx="1.5" fill="#5DB851" stroke="#2B8324"/>
<path d="M104.648 23.1818V29H103.943V23.9205H103.909L102.489 24.8636V24.1477L103.943 23.1818H104.648ZM108.219 29.0795C107.791 29.0795 107.426 28.9631 107.125 28.7301C106.824 28.4953 106.594 28.1553 106.435 27.7102C106.276 27.2633 106.196 26.7235 106.196 26.0909C106.196 25.4621 106.276 24.9252 106.435 24.4801C106.596 24.0331 106.827 23.6922 107.128 23.4574C107.431 23.2206 107.795 23.1023 108.219 23.1023C108.643 23.1023 109.006 23.2206 109.307 23.4574C109.61 23.6922 109.841 24.0331 110 24.4801C110.161 24.9252 110.241 25.4621 110.241 26.0909C110.241 26.7235 110.162 27.2633 110.003 27.7102C109.844 28.1553 109.614 28.4953 109.312 28.7301C109.011 28.9631 108.647 29.0795 108.219 29.0795ZM108.219 28.4545C108.643 28.4545 108.973 28.25 109.207 27.8409C109.442 27.4318 109.56 26.8485 109.56 26.0909C109.56 25.5871 109.506 25.1581 109.398 24.804C109.292 24.4498 109.138 24.1799 108.938 23.9943C108.739 23.8087 108.499 23.7159 108.219 23.7159C107.798 23.7159 107.47 23.9233 107.233 24.3381C106.996 24.7509 106.878 25.3352 106.878 26.0909C106.878 26.5947 106.931 27.0227 107.037 27.375C107.143 27.7273 107.295 27.9953 107.494 28.179C107.695 28.3627 107.937 28.4545 108.219 28.4545Z" fill="#2B8324"/>
</svg>
