<svg width="128" height="128" viewBox="0 0 128 128" fill="none" xmlns="http://www.w3.org/2000/svg">
<rect x="59" y="41" width="22" height="45" rx="6" fill="#D9D9D9"/>
<rect x="83" y="41" width="22" height="45" rx="6" fill="#D9D9D9"/>
<rect x="108" y="54" width="8" height="20" rx="4" fill="#D9D9D9"/>
<rect x="12" y="41" width="45" height="45" rx="6" fill="#5DB851"/>
<path d="M28.5966 67.0795C28.1951 67.0795 27.8371 67.0057 27.5227 66.858C27.2102 66.7102 26.9621 66.5066 26.7784 66.2472C26.5947 65.9877 26.4991 65.6903 26.4915 65.3551H27.6847C27.6979 65.5805 27.7926 65.7633 27.9688 65.9034C28.1449 66.0436 28.3542 66.1136 28.5966 66.1136C28.7898 66.1136 28.9602 66.071 29.108 65.9858C29.2576 65.8987 29.3741 65.7784 29.4574 65.625C29.5426 65.4697 29.5852 65.2917 29.5852 65.0909C29.5852 64.8864 29.5417 64.7064 29.4545 64.5511C29.3693 64.3958 29.2509 64.2746 29.0994 64.1875C28.9479 64.1004 28.7746 64.0559 28.5795 64.054C28.4091 64.054 28.2434 64.089 28.0824 64.1591C27.9233 64.2292 27.7992 64.3248 27.7102 64.446L26.6165 64.25L26.892 61.1818H30.4489V62.1875H27.9062L27.7557 63.6449H27.7898C27.892 63.5009 28.0464 63.3816 28.2528 63.2869C28.4593 63.1922 28.6903 63.1449 28.946 63.1449C29.2964 63.1449 29.6089 63.2273 29.8835 63.392C30.1581 63.5568 30.375 63.7831 30.5341 64.071C30.6932 64.357 30.7718 64.6866 30.7699 65.0597C30.7718 65.4517 30.6809 65.8002 30.4972 66.1051C30.3153 66.4081 30.0606 66.6468 29.733 66.821C29.4072 66.9934 29.0284 67.0795 28.5966 67.0795ZM33.9091 67.1278C33.4205 67.1259 33 67.0057 32.6477 66.767C32.2973 66.5284 32.0275 66.1828 31.8381 65.7301C31.6506 65.2775 31.5578 64.733 31.5597 64.0966C31.5597 63.4621 31.6534 62.9214 31.8409 62.4744C32.0303 62.0275 32.3002 61.6875 32.6506 61.4545C33.0028 61.2197 33.4223 61.1023 33.9091 61.1023C34.3958 61.1023 34.8144 61.2197 35.1648 61.4545C35.517 61.6894 35.7879 62.0303 35.9773 62.4773C36.1667 62.9223 36.2604 63.4621 36.2585 64.0966C36.2585 64.7348 36.1638 65.2803 35.9744 65.733C35.7869 66.1856 35.518 66.5312 35.1676 66.7699C34.8172 67.0085 34.3977 67.1278 33.9091 67.1278ZM33.9091 66.108C34.2424 66.108 34.5085 65.9403 34.7074 65.6051C34.9063 65.2699 35.0047 64.767 35.0028 64.0966C35.0028 63.6553 34.9574 63.2879 34.8665 62.9943C34.7775 62.7008 34.6506 62.4801 34.4858 62.3324C34.3229 62.1847 34.1307 62.1108 33.9091 62.1108C33.5777 62.1108 33.3125 62.2765 33.1136 62.608C32.9148 62.9394 32.8144 63.4356 32.8125 64.0966C32.8125 64.5436 32.857 64.9167 32.946 65.2159C33.0369 65.5133 33.1648 65.7367 33.3295 65.8864C33.4943 66.0341 33.6875 66.108 33.9091 66.108ZM40.3203 65.9091V65.6023C40.3203 65.3693 40.3696 65.1553 40.468 64.9602C40.5684 64.7633 40.7133 64.6061 40.9027 64.4886C41.094 64.3693 41.3269 64.3097 41.6016 64.3097C41.88 64.3097 42.1139 64.3684 42.3033 64.4858C42.4946 64.6032 42.6385 64.7604 42.7351 64.9574C42.8336 65.1525 42.8828 65.3674 42.8828 65.6023V65.9091C42.8828 66.142 42.8336 66.357 42.7351 66.554C42.6366 66.7491 42.4917 66.9053 42.3004 67.0227C42.1091 67.142 41.8762 67.2017 41.6016 67.2017C41.3232 67.2017 41.0893 67.142 40.8999 67.0227C40.7105 66.9053 40.5665 66.7491 40.468 66.554C40.3696 66.357 40.3203 66.142 40.3203 65.9091ZM41.147 65.6023V65.9091C41.147 66.0436 41.1792 66.1705 41.2436 66.2898C41.3099 66.4091 41.4292 66.4688 41.6016 66.4688C41.7739 66.4688 41.8913 66.41 41.9538 66.2926C42.0182 66.1752 42.0504 66.0473 42.0504 65.9091V65.6023C42.0504 65.464 42.0201 65.3352 41.9595 65.2159C41.8989 65.0966 41.7796 65.0369 41.6016 65.0369C41.4311 65.0369 41.3127 65.0966 41.2464 65.2159C41.1802 65.3352 41.147 65.464 41.147 65.6023ZM37.3345 62.5795V62.2727C37.3345 62.0379 37.3847 61.8229 37.4851 61.6278C37.5855 61.4309 37.7304 61.2737 37.9197 61.1562C38.111 61.0388 38.3421 60.9801 38.6129 60.9801C38.8932 60.9801 39.1281 61.0388 39.3175 61.1562C39.5069 61.2737 39.6508 61.4309 39.7493 61.6278C39.8478 61.8229 39.897 62.0379 39.897 62.2727V62.5795C39.897 62.8144 39.8468 63.0294 39.7464 63.2244C39.648 63.4195 39.5031 63.5758 39.3118 63.6932C39.1224 63.8087 38.8894 63.8665 38.6129 63.8665C38.3364 63.8665 38.1025 63.8078 37.9112 63.6903C37.7218 63.571 37.5779 63.4148 37.4794 63.2216C37.3828 63.0265 37.3345 62.8125 37.3345 62.5795ZM38.1669 62.2727V62.5795C38.1669 62.7178 38.1991 62.8456 38.2635 62.9631C38.3298 63.0805 38.4463 63.1392 38.6129 63.1392C38.7872 63.1392 38.9055 63.0805 38.968 62.9631C39.0324 62.8456 39.0646 62.7178 39.0646 62.5795V62.2727C39.0646 62.1345 39.0343 62.0057 38.9737 61.8864C38.9131 61.767 38.7929 61.7074 38.6129 61.7074C38.4444 61.7074 38.3279 61.768 38.2635 61.8892C38.1991 62.0104 38.1669 62.1383 38.1669 62.2727ZM37.7095 67L41.7095 61.1818H42.4538L38.4538 67H37.7095Z" fill="#2B8324"/>
</svg>
