<svg width="128" height="128" viewBox="0 0 128 128" fill="none" xmlns="http://www.w3.org/2000/svg">
<rect x="11" y="34" width="105" height="60" rx="6" fill="#86008D"/>
<path d="M30.5071 56.4545V71H27.4318V59.3736H27.3466L24.0156 61.4616V58.7344L27.6165 56.4545H30.5071ZM39.6673 71.3196C38.4457 71.3149 37.3945 71.0142 36.5138 70.4176C35.6379 69.821 34.9632 68.9569 34.4897 67.8253C34.021 66.6937 33.7889 65.3324 33.7937 63.7415C33.7937 62.1553 34.0281 60.8035 34.4968 59.6861C34.9703 58.5687 35.645 57.7187 36.521 57.1364C37.4016 56.5492 38.4504 56.2557 39.6673 56.2557C40.8841 56.2557 41.9305 56.5492 42.8065 57.1364C43.6871 57.7235 44.3642 58.5758 44.8377 59.6932C45.3112 60.8059 45.5456 62.1553 45.5408 63.7415C45.5408 65.3371 45.3041 66.7008 44.8306 67.8324C44.3619 68.964 43.6895 69.8281 42.8136 70.4247C41.9376 71.0213 40.8888 71.3196 39.6673 71.3196ZM39.6673 68.7699C40.5006 68.7699 41.1658 68.3509 41.663 67.5128C42.1602 66.6747 42.4064 65.4176 42.4016 63.7415C42.4016 62.6383 42.288 61.7197 42.0607 60.9858C41.8382 60.2519 41.521 59.7003 41.109 59.331C40.7018 58.9616 40.2212 58.777 39.6673 58.777C38.8387 58.777 38.1758 59.1913 37.6786 60.0199C37.1815 60.8485 36.9305 62.089 36.9258 63.7415C36.9258 64.8589 37.0371 65.7917 37.2596 66.5398C37.4869 67.2831 37.8065 67.8419 38.2184 68.2159C38.6303 68.5852 39.1133 68.7699 39.6673 68.7699Z" fill="#F648FF"/>
<path d="M56.7969 66.4332V63.9332L66.7969 59.5298V62.4062L59.9503 65.1548L60.0426 65.0057V65.3608L59.9503 65.2116L66.7969 67.9602V70.8366L56.7969 66.4332Z" fill="#F648FF"/>
<path d="M78.179 71V68.7841L83.3565 63.9901C83.7969 63.5639 84.1662 63.1804 84.4645 62.8395C84.7675 62.4986 84.9972 62.1648 85.1534 61.8381C85.3097 61.5066 85.3878 61.1491 85.3878 60.7656C85.3878 60.3395 85.2907 59.9725 85.0966 59.6648C84.9025 59.3523 84.6373 59.1132 84.3011 58.9474C83.965 58.777 83.5838 58.6918 83.1577 58.6918C82.7126 58.6918 82.3243 58.7817 81.9929 58.9616C81.6615 59.1416 81.4058 59.3996 81.2259 59.7358C81.0459 60.072 80.956 60.4721 80.956 60.9361H78.0369C78.0369 59.9844 78.2524 59.1581 78.6832 58.4574C79.1141 57.7566 79.7178 57.2145 80.4943 56.831C81.2708 56.4474 82.1657 56.2557 83.179 56.2557C84.2206 56.2557 85.1274 56.4403 85.8991 56.8097C86.6757 57.1742 87.2794 57.6809 87.7102 58.3295C88.1411 58.9782 88.3565 59.7216 88.3565 60.5597C88.3565 61.1089 88.2476 61.651 88.0298 62.1861C87.8168 62.7211 87.4356 63.3153 86.8864 63.9688C86.3371 64.6174 85.563 65.3963 84.5639 66.3054L82.4403 68.3864V68.4858H88.5483V71H78.179ZM96.4798 71.3196C95.2582 71.3149 94.207 71.0142 93.3263 70.4176C92.4504 69.821 91.7757 68.9569 91.3022 67.8253C90.8335 66.6937 90.6014 65.3324 90.6062 63.7415C90.6062 62.1553 90.8406 60.8035 91.3093 59.6861C91.7828 58.5687 92.4575 57.7187 93.3335 57.1364C94.2141 56.5492 95.2629 56.2557 96.4798 56.2557C97.6966 56.2557 98.743 56.5492 99.619 57.1364C100.5 57.7235 101.177 58.5758 101.65 59.6932C102.124 60.8059 102.358 62.1553 102.353 63.7415C102.353 65.3371 102.117 66.7008 101.643 67.8324C101.174 68.964 100.502 69.8281 99.6261 70.4247C98.7501 71.0213 97.7013 71.3196 96.4798 71.3196ZM96.4798 68.7699C97.3131 68.7699 97.9783 68.3509 98.4755 67.5128C98.9727 66.6747 99.2189 65.4176 99.2141 63.7415C99.2141 62.6383 99.1005 61.7197 98.8732 60.9858C98.6507 60.2519 98.3335 59.7003 97.9215 59.331C97.5143 58.9616 97.0337 58.777 96.4798 58.777C95.6512 58.777 94.9883 59.1913 94.4911 60.0199C93.994 60.8485 93.743 62.089 93.7383 63.7415C93.7383 64.8589 93.8496 65.7917 94.0721 66.5398C94.2994 67.2831 94.619 67.8419 95.0309 68.2159C95.4428 68.5852 95.9258 68.7699 96.4798 68.7699Z" fill="#F648FF"/>
</svg>
