<svg width="128" height="128" viewBox="0 0 128 128" fill="none" xmlns="http://www.w3.org/2000/svg">
<path d="M87.4141 87.4141C88.195 86.6331 89.4611 86.6333 90.2422 87.4141L101.557 98.7275C102.338 99.5086 102.338 100.776 101.557 101.557C100.776 102.338 99.5086 102.338 98.7275 101.557L87.4141 90.2422C86.6333 89.4611 86.6331 88.195 87.4141 87.4141ZM59 24C78.33 24 94 39.67 94 59C94 78.33 78.33 94 59 94C39.67 94 24 78.33 24 59C24 39.67 39.67 24 59 24ZM59 28C41.8792 28 28 41.8792 28 59C28 76.1208 41.8792 90 59 90C76.1208 90 90 76.1208 90 59C90 41.8792 76.1208 28 59 28Z" fill="#86008D"/>
<path d="M53.358 49.5455V67H49.1477V53.483H49.0455L45.142 55.8693V52.2216L49.446 49.5455H53.358ZM64.4354 67.4261C62.9126 67.4261 61.6001 67.0653 60.4979 66.3438C59.3956 65.6165 58.5462 64.5739 57.9496 63.2159C57.353 61.8523 57.0575 60.2131 57.0632 58.2983C57.0689 56.3835 57.3672 54.7585 57.9581 53.4233C58.5547 52.0824 59.4013 51.0625 60.4979 50.3636C61.6001 49.6591 62.9126 49.3068 64.4354 49.3068C65.9581 49.3068 67.2706 49.6591 68.3729 50.3636C69.4808 51.0625 70.3331 52.0824 70.9297 53.4233C71.5263 54.7642 71.8217 56.3892 71.8161 58.2983C71.8161 60.2187 71.5178 61.8608 70.9212 63.2244C70.3246 64.5881 69.4751 65.6307 68.3729 66.3523C67.2763 67.0682 65.9638 67.4261 64.4354 67.4261ZM64.4354 63.9744C65.3445 63.9744 66.0803 63.5114 66.6428 62.5852C67.2053 61.6534 67.4837 60.2244 67.478 58.2983C67.478 57.0369 67.3501 55.9972 67.0945 55.179C66.8388 54.3551 66.4837 53.7415 66.0291 53.3381C65.5746 52.9347 65.0433 52.733 64.4354 52.733C63.532 52.733 62.8018 53.1903 62.245 54.1051C61.6882 55.0142 61.407 56.4119 61.4013 58.2983C61.3956 59.5767 61.5178 60.6364 61.7678 61.4773C62.0234 62.3182 62.3814 62.946 62.8416 63.3608C63.3018 63.7699 63.8331 63.9744 64.4354 63.9744Z" fill="#F648FF"/>
<path d="M50.255 101.818V112H48.1023V103.862H48.0426L45.7109 105.323V103.414L48.2315 101.818H50.255ZM56.6671 112.224C55.812 112.22 55.0762 112.01 54.4597 111.592C53.8465 111.175 53.3742 110.57 53.0428 109.778C52.7147 108.986 52.5523 108.033 52.5556 106.919C52.5556 105.809 52.7196 104.862 53.0478 104.08C53.3792 103.298 53.8515 102.703 54.4647 102.295C55.0811 101.884 55.8153 101.679 56.6671 101.679C57.5189 101.679 58.2514 101.884 58.8645 102.295C59.481 102.706 59.955 103.303 60.2864 104.085C60.6178 104.864 60.7819 105.809 60.7786 106.919C60.7786 108.036 60.6129 108.991 60.2814 109.783C59.9533 110.575 59.4827 111.18 58.8695 111.597C58.2563 112.015 57.5222 112.224 56.6671 112.224ZM56.6671 110.439C57.2504 110.439 57.7161 110.146 58.0641 109.559C58.4121 108.972 58.5845 108.092 58.5811 106.919C58.5811 106.147 58.5016 105.504 58.3425 104.99C58.1867 104.476 57.9647 104.09 57.6763 103.832C57.3913 103.573 57.0549 103.444 56.6671 103.444C56.0871 103.444 55.623 103.734 55.275 104.314C54.927 104.894 54.7514 105.762 54.748 106.919C54.748 107.701 54.8259 108.354 54.9817 108.878C55.1408 109.398 55.3645 109.789 55.6529 110.051C55.9412 110.31 56.2793 110.439 56.6671 110.439ZM66.3058 112.224C65.4506 112.22 64.7148 112.01 64.0984 111.592C63.4852 111.175 63.0129 110.57 62.6815 109.778C62.3533 108.986 62.1909 108.033 62.1942 106.919C62.1942 105.809 62.3583 104.862 62.6864 104.08C63.0179 103.298 63.4902 102.703 64.1033 102.295C64.7198 101.884 65.454 101.679 66.3058 101.679C67.1576 101.679 67.89 101.884 68.5032 102.295C69.1197 102.706 69.5936 103.303 69.9251 104.085C70.2565 104.864 70.4206 105.809 70.4173 106.919C70.4173 108.036 70.2515 108.991 69.9201 109.783C69.592 110.575 69.1213 111.18 68.5082 111.597C67.895 112.015 67.1609 112.224 66.3058 112.224ZM66.3058 110.439C66.8891 110.439 67.3548 110.146 67.7028 109.559C68.0508 108.972 68.2231 108.092 68.2198 106.919C68.2198 106.147 68.1403 105.504 67.9812 104.99C67.8254 104.476 67.6033 104.09 67.315 103.832C67.0299 103.573 66.6935 103.444 66.3058 103.444C65.7257 103.444 65.2617 103.734 64.9137 104.314C64.5657 104.894 64.39 105.762 64.3867 106.919C64.3867 107.701 64.4646 108.354 64.6204 108.878C64.7795 109.398 65.0032 109.789 65.2915 110.051C65.5799 110.31 65.918 110.439 66.3058 110.439Z" fill="#86008D"/>
<path d="M60.255 6.81818V17H58.1023V8.86151H58.0426L55.7109 10.3232V8.41406L58.2315 6.81818H60.255Z" fill="#86008D"/>
</svg>
