<svg width="128" height="128" viewBox="0 0 128 128" fill="none" xmlns="http://www.w3.org/2000/svg">
<path d="M78.8039 27C81.1133 23 86.8868 23 89.1962 27L104.785 54C107.094 58 104.207 63 99.5885 63H68.4115C63.7927 63 60.906 58 63.2154 54L78.8039 27Z" fill="#2B8324"/>
<circle cx="84" cy="90" r="20" fill="#5DB851"/>
<rect x="14" y="22" width="40" height="88" rx="6" fill="#5DB851"/>
<line x1="41" y1="29.5" x2="54" y2="29.5" stroke="white"/>
<line x1="41" y1="37.5" x2="54" y2="37.5" stroke="white"/>
<line x1="41" y1="45.5" x2="54" y2="45.5" stroke="white"/>
<line x1="41" y1="53.5" x2="54" y2="53.5" stroke="white"/>
<line x1="41" y1="61.5" x2="54" y2="61.5" stroke="white"/>
<line x1="41" y1="69.5" x2="54" y2="69.5" stroke="white"/>
<line x1="41" y1="77.5" x2="54" y2="77.5" stroke="white"/>
<line x1="41" y1="85.5" x2="54" y2="85.5" stroke="white"/>
<line x1="41" y1="93.5" x2="54" y2="93.5" stroke="white"/>
<line x1="41" y1="101.5" x2="54" y2="101.5" stroke="white"/>
</svg>
