<svg width="128" height="128" viewBox="0 0 128 128" fill="none" xmlns="http://www.w3.org/2000/svg">
<path d="M50 28C53.3137 28 56 30.6863 56 34V102C56 105.314 53.3137 108 50 108H20C16.6863 108 14 105.314 14 102V34C14 30.6863 16.6863 28 20 28H50ZM43 18C44.1046 18 45 18.8954 45 20V23C45 24.1046 44.1046 25 43 25H27C25.8954 25 25 24.1046 25 23V20C25 18.8954 25.8954 18 27 18H43Z" fill="#D9D9D9"/>
<path d="M97 28C100.314 28 103 30.6863 103 34V102C103 105.314 100.314 108 97 108H67C63.6863 108 61 105.314 61 102V34C61 30.6863 63.6863 28 67 28H97ZM90 18C91.1046 18 92 18.8954 92 20V23C92 24.1046 91.1046 25 90 25H74C72.8954 25 72 24.1046 72 23V20C72 18.8954 72.8954 18 74 18H90Z" fill="#D9D9D9"/>
<rect x="14" y="68" width="42" height="40" rx="6" fill="#5DB851"/>
<path d="M24.8949 92.1193C24.2926 92.1193 23.7557 92.0085 23.2841 91.7869C22.8153 91.5653 22.4432 91.2599 22.1676 90.8707C21.892 90.4815 21.7486 90.0355 21.7372 89.5327H23.527C23.5469 89.8707 23.6889 90.1449 23.9531 90.3551C24.2173 90.5653 24.5312 90.6705 24.8949 90.6705C25.1847 90.6705 25.4403 90.6065 25.6619 90.4787C25.8864 90.348 26.0611 90.1676 26.1861 89.9375C26.3139 89.7045 26.3778 89.4375 26.3778 89.1364C26.3778 88.8295 26.3125 88.5597 26.1818 88.3267C26.054 88.0937 25.8764 87.9119 25.6491 87.7812C25.4219 87.6506 25.1619 87.5838 24.8693 87.581C24.6136 87.581 24.3651 87.6335 24.1236 87.7386C23.8849 87.8437 23.6989 87.9872 23.5653 88.169L21.9247 87.875L22.3381 83.2727H27.6733V84.7812H23.8594L23.6335 86.9673H23.6847C23.8381 86.7514 24.0696 86.5724 24.3793 86.4304C24.6889 86.2884 25.0355 86.2173 25.419 86.2173C25.9446 86.2173 26.4134 86.3409 26.8253 86.5881C27.2372 86.8352 27.5625 87.1747 27.8011 87.6065C28.0398 88.0355 28.1577 88.5298 28.1548 89.0895C28.1577 89.6776 28.0213 90.2003 27.7457 90.6577C27.473 91.1122 27.0909 91.4702 26.5994 91.7315C26.1108 91.9901 25.5426 92.1193 24.8949 92.1193ZM32.8636 92.1918C32.1307 92.1889 31.5 92.0085 30.9716 91.6506C30.446 91.2926 30.0412 90.7741 29.7571 90.0952C29.4759 89.4162 29.3366 88.5994 29.3395 87.6449C29.3395 86.6932 29.4801 85.8821 29.7614 85.2116C30.0455 84.5412 30.4503 84.0312 30.9759 83.6818C31.5043 83.3295 32.1335 83.1534 32.8636 83.1534C33.5938 83.1534 34.2216 83.3295 34.7472 83.6818C35.2756 84.0341 35.6818 84.5455 35.9659 85.2159C36.25 85.8835 36.3906 86.6932 36.3878 87.6449C36.3878 88.6023 36.2457 89.4205 35.9616 90.0994C35.6804 90.7784 35.277 91.2969 34.7514 91.6548C34.2259 92.0128 33.5966 92.1918 32.8636 92.1918ZM32.8636 90.6619C33.3636 90.6619 33.7628 90.4105 34.0611 89.9077C34.3594 89.4048 34.5071 88.6506 34.5043 87.6449C34.5043 86.983 34.4361 86.4318 34.2997 85.9915C34.1662 85.5511 33.9759 85.2202 33.7287 84.9986C33.4844 84.777 33.196 84.6662 32.8636 84.6662C32.3665 84.6662 31.9688 84.9148 31.6705 85.4119C31.3722 85.9091 31.2216 86.6534 31.2188 87.6449C31.2188 88.3153 31.2855 88.875 31.419 89.3239C31.5554 89.7699 31.7472 90.1051 31.9943 90.3295C32.2415 90.5511 32.5312 90.6619 32.8636 90.6619ZM42.4805 90.3636V89.9034C42.4805 89.554 42.5543 89.233 42.7021 88.9403C42.8526 88.6449 43.07 88.4091 43.354 88.233C43.641 88.054 43.9904 87.9645 44.4023 87.9645C44.82 87.9645 45.1708 88.0526 45.4549 88.2287C45.7418 88.4048 45.9577 88.6406 46.1026 88.9361C46.2504 89.2287 46.3242 89.5511 46.3242 89.9034V90.3636C46.3242 90.7131 46.2504 91.0355 46.1026 91.331C45.9549 91.6236 45.7376 91.858 45.4506 92.0341C45.1637 92.2131 44.8143 92.3026 44.4023 92.3026C43.9847 92.3026 43.6339 92.2131 43.3498 92.0341C43.0657 91.858 42.8498 91.6236 42.7021 91.331C42.5543 91.0355 42.4805 90.7131 42.4805 90.3636ZM43.7205 89.9034V90.3636C43.7205 90.5653 43.7688 90.7557 43.8654 90.9347C43.9648 91.1136 44.1438 91.2031 44.4023 91.2031C44.6609 91.2031 44.837 91.1151 44.9308 90.9389C45.0273 90.7628 45.0756 90.571 45.0756 90.3636V89.9034C45.0756 89.696 45.0302 89.5028 44.9393 89.3239C44.8484 89.1449 44.6694 89.0554 44.4023 89.0554C44.1467 89.0554 43.9691 89.1449 43.8697 89.3239C43.7702 89.5028 43.7205 89.696 43.7205 89.9034ZM38.0018 85.3693V84.9091C38.0018 84.5568 38.0771 84.2344 38.2276 83.9418C38.3782 83.6463 38.5955 83.4105 38.8796 83.2344C39.1665 83.0582 39.5131 82.9702 39.9194 82.9702C40.3398 82.9702 40.6921 83.0582 40.9762 83.2344C41.2603 83.4105 41.4762 83.6463 41.6239 83.9418C41.7717 84.2344 41.8455 84.5568 41.8455 84.9091V85.3693C41.8455 85.7216 41.7702 86.044 41.6197 86.3366C41.4719 86.6293 41.2546 86.8636 40.9677 87.0398C40.6836 87.2131 40.3342 87.2997 39.9194 87.2997C39.5046 87.2997 39.1538 87.2116 38.8668 87.0355C38.5827 86.8565 38.3668 86.6222 38.2191 86.3324C38.0742 86.0398 38.0018 85.7187 38.0018 85.3693ZM39.2504 84.9091V85.3693C39.2504 85.5767 39.2987 85.7685 39.3952 85.9446C39.4947 86.1207 39.6694 86.2088 39.9194 86.2088C40.1808 86.2088 40.3583 86.1207 40.4521 85.9446C40.5487 85.7685 40.5969 85.5767 40.5969 85.3693V84.9091C40.5969 84.7017 40.5515 84.5085 40.4606 84.3295C40.3697 84.1506 40.1893 84.0611 39.9194 84.0611C39.6665 84.0611 39.4918 84.152 39.3952 84.3338C39.2987 84.5156 39.2504 84.7074 39.2504 84.9091ZM38.5643 92L44.5643 83.2727H45.6808L39.6808 92H38.5643Z" fill="#2B8324"/>
<path d="M61 44C61 40.6863 63.6863 38 67 38H97C100.314 38 103 40.6863 103 44V102C103 105.314 100.314 108 97 108H67C63.6863 108 61 105.314 61 102V44Z" fill="#5DB851"/>
<path d="M71.8651 67.1534C72.3139 67.1534 72.7457 67.2287 73.1605 67.3793C73.5781 67.5298 73.9503 67.7699 74.277 68.0994C74.6065 68.429 74.8665 68.8665 75.0568 69.4119C75.25 69.9545 75.348 70.6207 75.3509 71.4105C75.3509 72.152 75.267 72.8139 75.0994 73.3963C74.9347 73.9759 74.6974 74.4688 74.3878 74.875C74.0781 75.2812 73.7045 75.5909 73.267 75.804C72.8295 76.0142 72.3409 76.1193 71.8011 76.1193C71.2188 76.1193 70.7045 76.0071 70.2585 75.7827C69.8125 75.5554 69.4531 75.2472 69.1804 74.858C68.9105 74.4659 68.7472 74.0256 68.6903 73.5369H70.5099C70.581 73.8551 70.7301 74.1023 70.9574 74.2784C71.1847 74.4517 71.4659 74.5384 71.8011 74.5384C72.3693 74.5384 72.8011 74.2912 73.0966 73.7969C73.392 73.2997 73.5412 72.6193 73.544 71.7557H73.4844C73.3537 72.0114 73.1776 72.2315 72.956 72.4162C72.7344 72.598 72.4801 72.7386 72.1932 72.8381C71.9091 72.9375 71.6065 72.9872 71.2855 72.9872C70.7713 72.9872 70.3125 72.8665 69.9091 72.625C69.5057 72.3835 69.1875 72.0511 68.9545 71.6278C68.7216 71.2045 68.6051 70.7216 68.6051 70.179C68.6023 69.5938 68.7372 69.0724 69.0099 68.6151C69.2827 68.1577 69.6634 67.7997 70.152 67.5412C70.6435 67.2798 71.2145 67.1506 71.8651 67.1534ZM71.8778 68.6023C71.5909 68.6023 71.3352 68.6705 71.1108 68.8068C70.8892 68.9432 70.7131 69.1264 70.5824 69.3565C70.4545 69.5866 70.392 69.8437 70.3949 70.1278C70.3949 70.4148 70.4574 70.6733 70.5824 70.9034C70.7102 71.1307 70.8835 71.3125 71.1023 71.4489C71.3239 71.5824 71.5767 71.6491 71.8608 71.6491C72.0739 71.6491 72.2713 71.6094 72.4531 71.5298C72.6349 71.4503 72.7926 71.3409 72.9261 71.2017C73.0625 71.0597 73.169 70.8963 73.2457 70.7116C73.3224 70.527 73.3608 70.331 73.3608 70.1236C73.358 69.848 73.2926 69.5952 73.1648 69.3651C73.0369 69.1349 72.8608 68.9503 72.6364 68.8111C72.4119 68.6719 72.1591 68.6023 71.8778 68.6023ZM80.0511 76.1918C79.3182 76.1889 78.6875 76.0085 78.1591 75.6506C77.6335 75.2926 77.2287 74.7741 76.9446 74.0952C76.6634 73.4162 76.5241 72.5994 76.527 71.6449C76.527 70.6932 76.6676 69.8821 76.9489 69.2116C77.233 68.5412 77.6378 68.0312 78.1634 67.6818C78.6918 67.3295 79.321 67.1534 80.0511 67.1534C80.7813 67.1534 81.4091 67.3295 81.9347 67.6818C82.4631 68.0341 82.8693 68.5455 83.1534 69.2159C83.4375 69.8835 83.5781 70.6932 83.5753 71.6449C83.5753 72.6023 83.4332 73.4205 83.1491 74.0994C82.8679 74.7784 82.4645 75.2969 81.9389 75.6548C81.4134 76.0128 80.7841 76.1918 80.0511 76.1918ZM80.0511 74.6619C80.5511 74.6619 80.9503 74.4105 81.2486 73.9077C81.5469 73.4048 81.6946 72.6506 81.6918 71.6449C81.6918 70.983 81.6236 70.4318 81.4872 69.9915C81.3537 69.5511 81.1634 69.2202 80.9162 68.9986C80.6719 68.777 80.3835 68.6662 80.0511 68.6662C79.554 68.6662 79.1563 68.9148 78.858 69.4119C78.5597 69.9091 78.4091 70.6534 78.4062 71.6449C78.4062 72.3153 78.473 72.875 78.6065 73.3239C78.7429 73.7699 78.9347 74.1051 79.1818 74.3295C79.429 74.5511 79.7188 74.6619 80.0511 74.6619ZM89.668 74.3636V73.9034C89.668 73.554 89.7418 73.233 89.8896 72.9403C90.0401 72.6449 90.2575 72.4091 90.5415 72.233C90.8285 72.054 91.1779 71.9645 91.5898 71.9645C92.0075 71.9645 92.3583 72.0526 92.6424 72.2287C92.9293 72.4048 93.1452 72.6406 93.2901 72.9361C93.4379 73.2287 93.5117 73.5511 93.5117 73.9034V74.3636C93.5117 74.7131 93.4379 75.0355 93.2901 75.331C93.1424 75.6236 92.9251 75.858 92.6381 76.0341C92.3512 76.2131 92.0018 76.3026 91.5898 76.3026C91.1722 76.3026 90.8214 76.2131 90.5373 76.0341C90.2532 75.858 90.0373 75.6236 89.8896 75.331C89.7418 75.0355 89.668 74.7131 89.668 74.3636ZM90.908 73.9034V74.3636C90.908 74.5653 90.9563 74.7557 91.0529 74.9347C91.1523 75.1136 91.3313 75.2031 91.5898 75.2031C91.8484 75.2031 92.0245 75.1151 92.1183 74.9389C92.2148 74.7628 92.2631 74.571 92.2631 74.3636V73.9034C92.2631 73.696 92.2177 73.5028 92.1268 73.3239C92.0359 73.1449 91.8569 73.0554 91.5898 73.0554C91.3342 73.0554 91.1566 73.1449 91.0572 73.3239C90.9577 73.5028 90.908 73.696 90.908 73.9034ZM85.1893 69.3693V68.9091C85.1893 68.5568 85.2646 68.2344 85.4151 67.9418C85.5657 67.6463 85.783 67.4105 86.0671 67.2344C86.354 67.0582 86.7006 66.9702 87.1069 66.9702C87.5273 66.9702 87.8796 67.0582 88.1637 67.2344C88.4478 67.4105 88.6637 67.6463 88.8114 67.9418C88.9592 68.2344 89.033 68.5568 89.033 68.9091V69.3693C89.033 69.7216 88.9577 70.044 88.8072 70.3366C88.6594 70.6293 88.4421 70.8636 88.1552 71.0398C87.8711 71.2131 87.5217 71.2997 87.1069 71.2997C86.6921 71.2997 86.3413 71.2116 86.0543 71.0355C85.7702 70.8565 85.5543 70.6222 85.4066 70.3324C85.2617 70.0398 85.1893 69.7187 85.1893 69.3693ZM86.4379 68.9091V69.3693C86.4379 69.5767 86.4862 69.7685 86.5827 69.9446C86.6822 70.1207 86.8569 70.2088 87.1069 70.2088C87.3683 70.2088 87.5458 70.1207 87.6396 69.9446C87.7362 69.7685 87.7844 69.5767 87.7844 69.3693V68.9091C87.7844 68.7017 87.739 68.5085 87.6481 68.3295C87.5572 68.1506 87.3768 68.0611 87.1069 68.0611C86.854 68.0611 86.6793 68.152 86.5827 68.3338C86.4862 68.5156 86.4379 68.7074 86.4379 68.9091ZM85.7518 76L91.7518 67.2727H92.8683L86.8683 76H85.7518Z" fill="#2B8324"/>
</svg>
